Motion_sv04_j
version=1
nRows=16
nColumns=43
inDegrees=yes
endheader
time	pelvis_tilt	pelvis_list	pelvis_rotation	pelvis_tx	pelvis_ty	pelvis_tz	hip_flexion_r	hip_adduction_r	hip_rotation_r	knee_angle_r	ankle_angle_r	subtalar_angle_r	mtp_angle_r	hip_flexion_l	hip_adduction_l	hip_rotation_l	knee_angle_l	ankle_angle_l	subtalar_angle_l	mtp_angle_l	lumbar_extension	lumbar_bending	lumbar_rotation	neck_flexion	neck_lateral_bending	neck_rotation	arm_flex_r	arm_add_r	arm_rot_r	elbow_flex_r	pro_sup_r	wrist_flex_r	wrist_dev_r	hand_finger_flex_r	arm_flex_l	arm_add_l	arm_rot_l	elbow_flex_l	pro_sup_l	wrist_flex_l	wrist_dev_l	hand_finger_flex_l
      1.22250000	     -3.26881252	    -22.40387395	    -88.00890767	     -0.03102567	      0.96616394	     -0.01308202	    -12.13284040	     -3.57760591	    -15.23426323	     -8.74774696	      3.89196479	     18.32442424	     -3.19374978	    -23.97875734	    -10.28563544	    -18.55023595	    -17.50863619	     15.76323074	     25.41160799	     12.03695961	    -40.13546479	      4.86651675	     -4.61920807	    -36.12876431	     -9.43921566	      5.03947957	    -23.83496005	    -11.87385273	    -20.35747356	     73.11415960	    104.96820515	      6.51158165	     -6.21531175	    -21.76689129	    -34.95504406	     -7.73240758	    -27.98961192	    111.48942017	    139.55798799	     -6.79786946	      2.07347063	     -0.91577001
      1.22500000	     -3.33209429	    -22.40679673	    -88.02380897	     -0.03034230	      0.96602968	     -0.01468416	    -12.00726463	     -3.57978882	    -15.23842414	     -8.78202982	      3.87940744	     18.32803879	     -3.19635361	    -23.91887429	    -10.30348621	    -18.58012107	    -17.46055270	     15.79607071	     25.44879745	     12.00710762	    -40.25400993	      4.83576463	     -4.70960985	    -36.14006136	     -9.43559448	      5.03165274	    -23.82578107	    -11.80219057	    -20.26983078	     73.11445699	    104.99828433	      6.53390356	     -6.22389975	    -21.76836881	    -34.85526386	     -7.77544090	    -27.93364319	    111.55993275	    139.59810445	     -6.80926322	      2.05563067	     -0.91415351
      1.22750000	     -3.41926231	    -22.40738989	    -88.02256384	     -0.02970373	      0.96595442	     -0.01638709	    -11.70679492	     -3.58812603	    -15.22572168	     -9.14652283	      3.75446049	     18.32628226	     -3.20559020	    -23.81249312	    -10.37894591	    -18.59564562	    -17.47912968	     15.88570999	     25.64899255	     11.88811657	    -40.38385174	      4.82638486	     -4.83006318	    -35.99142737	     -9.36451216	      4.99287170	    -23.75421948	    -11.76602350	    -20.10562753	     73.00480598	    105.11621822	      6.57409752	     -6.23985606	    -21.79042200	    -34.81926475	     -7.95180308	    -27.82741348	    111.57975422	    139.78198396	     -6.83582450	      2.05369738	     -0.90255490
      1.23000000	     -3.60976964	    -22.04133379	    -88.03438101	     -0.02916117	      0.96522191	     -0.01836886	    -11.01227731	     -3.47771517	    -15.02243877	     -9.41903468	      3.74254290	     18.08487725	     -3.08524064	    -23.14903075	    -10.64066503	    -18.72409783	    -17.80979729	     16.25375607	     26.30221337	     11.18365635	    -40.16707583	      4.91394850	     -4.93219089	    -35.86483038	     -9.34271878	      5.03451112	    -23.69115233	    -11.71115481	    -19.97944073	     72.95903197	    105.54175025	      6.59920889	     -6.47330998	    -21.97402837	    -34.72681576	     -7.94963160	    -27.77767448	    111.62167517	    140.62175088	     -7.09407876	      2.15616327	     -0.81804944
      1.23250000	     -3.69365832	    -22.08285133	    -88.04486418	     -0.02839244	      0.96527771	     -0.01996756	    -10.90132618	     -3.47103879	    -14.98381738	     -9.49783275	      3.69632463	     18.09372425	     -3.08145927	    -23.12992105	    -10.67305327	    -18.70830582	    -17.75426760	     16.27368363	     26.30615442	     11.15283279	    -40.32111775	      4.92008500	     -5.01723508	    -35.91663243	     -9.36704206	      5.02693199	    -23.65913048	    -11.67756468	    -19.88682514	     72.91359818	    105.55431411	      6.63325836	     -6.46232467	    -21.96992093	    -34.62747651	     -8.02926945	    -27.68027377	    111.65987575	    140.63440972	     -7.07928228	      2.11764746	     -0.80255560
      1.23500000	     -3.75452259	    -22.10687039	    -88.07374174	     -0.02766635	      0.96517568	     -0.02117590	    -10.82458052	     -3.46825536	    -14.97471246	     -9.50449879	      3.68291412	     18.09691930	     -3.08002785	    -23.11051843	    -10.68266924	    -18.70202868	    -17.73734758	     16.27858580	     26.31115714	     11.14625383	    -40.42368520	      4.90265685	     -5.09362422	    -35.92773807	     -9.36855162	      5.02237322	    -23.71250783	    -11.63053347	    -19.84259508	     72.88311968	    105.55877866	      6.64567457	     -6.45526887	    -21.96753888	    -34.61983022	     -8.03840349	    -27.63599153	    111.64095904	    140.63959096	     -7.06769762	      2.11080393	     -0.79693727
      1.23750000	     -3.88027439	    -22.19821480	    -88.08671134	     -0.02708638	      0.96546002	     -0.02306958	    -10.59949010	     -3.44820927	    -14.89861455	     -9.91694255	      3.50970878	     18.09566144	     -3.05155561	    -23.08368914	    -10.79114180	    -18.59308354	    -17.74271426	     16.29945037	     26.39892393	     11.06908471	    -40.65698015	      4.92143878	     -5.19128644	    -35.85019257	     -9.37674169	      4.97708826	    -23.58334444	    -11.62104788	    -19.64009458	     72.78464983	    105.59516488	      6.72107242	     -6.42435822	    -21.95768658	    -34.50003697	     -8.30893870	    -27.51266775	    111.62430811	    140.70426550	     -7.03516298	      2.06059605	     -0.75335495
      1.24000000	     -3.92959486	    -22.19514925	    -88.14839885	     -0.02655247	      0.96534642	     -0.02460102	    -10.47126608	     -3.44345070	    -14.94503464	     -9.96808732	      3.52201540	     18.05467449	     -3.01584884	    -22.99569646	    -10.78617250	    -18.58104493	    -17.74469386	     16.32011191	     26.44516065	     11.02654114	    -40.76903162	      4.84978064	     -5.26036085	    -35.82412070	     -9.38416676	      4.96177894	    -23.57920165	    -11.56518058	    -19.56176819	     72.79616220	    105.60920969	      6.74678166	     -6.41943381	    -21.95640145	    -34.43192871	     -8.38105482	    -27.47683661	    111.68415477	    140.73723085	     -7.03864959	      2.04038356	     -0.73171085
      1.24250000	     -3.97002441	    -22.20033171	    -88.20395268	     -0.02586610	      0.96513397	     -0.02558419	    -10.42687757	     -3.42474844	    -14.96626270	     -9.96524180	      3.53500565	     18.04685312	     -3.00918171	    -22.96282607	    -10.77514040	    -18.58262341	    -17.73861255	     16.32694173	     26.45397252	     11.02123396	    -40.83024227	      4.79244332	     -5.34523278	    -35.82439943	     -9.38771216	      4.95870082	    -23.64302008	    -11.50569114	    -19.52237676	     72.77907463	    105.61293603	      6.75616096	     -6.41360589	    -21.95432623	    -34.42619290	     -8.37824760	    -27.42941746	    111.67943887	    140.74237702	     -7.02850754	      2.03431872	     -0.72579125
      1.24500000	     -3.31773667	    -21.83432974	    -88.14040982	     -0.02578416	      0.96410531	     -0.02725879	     -9.72305519	     -4.19367283	    -15.38836942	    -10.54180355	      4.44348859	     18.15055103	     -2.56036902	    -22.35825697	    -10.11840329	    -18.53729725	    -17.93719223	     16.45732325	     27.01335514	     10.61698091	    -40.53591858	      4.00281376	     -5.77917734	    -35.71759837	     -9.29823959	      4.96939702	    -23.60452097	    -11.31362729	    -19.32616910	     72.74623982	    105.76282464	      6.81285004	     -6.28998315	    -21.96830635	    -34.47706386	     -8.65309689	    -27.45211162	    111.84634888	    140.98382853	     -7.03197937	      2.19017989	     -0.47536207
      1.24750000	     -2.85084737	    -21.40094919	    -88.10887884	     -0.02532242	      0.96303776	     -0.02857460	     -9.11182944	     -4.77375857	    -15.96495770	    -10.78897352	      4.96357603	     18.92450577	     -1.98120749	    -21.72122364	     -9.55461752	    -18.28648086	    -18.06968541	     16.54556107	     26.67070669	      9.75390951	    -40.13595958	      3.43328043	     -6.20541771	    -35.75120892	     -9.36139229	      5.13029871	    -23.53689589	    -11.26017649	    -19.05932584	     72.59303984	    105.93196116	      6.83253501	     -6.31687030	    -21.99439330	    -34.58511571	     -8.83359640	    -27.45346752	    111.93180654	    141.11651693	     -7.13570535	      2.35605428	     -0.00057211
      1.25000000	     -2.57342915	    -21.35494417	    -88.08896303	     -0.02492203	      0.96259405	     -0.02960762	     -9.04124296	     -5.05575345	    -16.37898734	    -10.82948586	      5.43077843	     18.86495841	     -1.83873687	    -21.58938305	     -9.24842904	    -18.40110720	    -18.12157453	     16.68283728	     26.71251375	      9.60450071	    -40.11503073	      3.04758927	     -6.41894098	    -35.87659505	     -9.31046359	      5.11488077	    -23.62247264	    -11.14200192	    -18.98857536	     72.57374163	    105.95856410	      6.84333274	     -6.30087377	    -21.98784978	    -34.59465859	     -8.97073102	    -27.41548581	    112.00049134	    141.11464435	     -7.17319164	      2.37104902	      0.08276407
      1.25250000	     -2.16324947	    -21.23574172	    -88.07379127	     -0.02454771	      0.96224232	     -0.03102340	     -8.77085827	     -5.56224467	    -16.62833799	    -11.03699105	      5.92435349	     19.25038289	     -1.66102921	    -21.32618553	     -8.79096093	    -18.32970415	    -18.18699916	     16.55025282	     26.84940968	      9.32678703	    -40.08249386	      2.52958788	     -6.73362948	    -35.84138656	     -9.31879955	      5.15863576	    -23.59275569	    -11.03381437	    -18.82962812	     72.50429695	    106.02858477	      6.86921272	     -6.29278953	    -21.96800961	    -34.61251586	     -9.15279816	    -27.39901990	    112.07070815	    141.10149777	     -7.23017570	      2.51385171	      0.20023476
      1.25500000	     -2.22708234	    -21.28199375	    -88.10107075	     -0.02388152	      0.96252229	     -0.03259727	     -8.68903471	     -5.57725278	    -16.56259176	    -11.08267912	      5.90745382	     19.32357284	     -1.64547416	    -21.26377650	     -8.81141243	    -18.29366594	    -18.19298316	     16.53205856	     26.84289959	      9.29518044	    -40.24698929	      2.51906123	     -6.82189801	    -35.87233675	     -9.35771419	      5.16879274	    -23.53504727	    -11.00186050	    -18.75248039	     72.44832464	    106.04313299	      6.89091573	     -6.28588067	    -21.95943480	    -34.47434448	     -9.19035604	    -27.34211873	    112.04296089	    141.10227463	     -7.22604406	      2.52438487	      0.21141932
      1.25750000	     -2.41234878	    -21.46001158	    -87.99863816	     -0.02280289	      0.96350106	     -0.03463471	     -8.57578222	     -5.56503763	    -16.04666878	    -11.37902056	      5.62468536	     19.53553391	     -1.62299162	    -21.21576980	     -9.01706315	    -18.14873836	    -18.31704707	     16.37160492	     26.82878899	      9.22622552	    -40.59847914	      2.75090791	     -6.96630272	    -35.83898428	     -9.43191186	      5.16722968	    -23.35328133	    -10.98986705	    -18.64320232	     72.31989500	    106.07165716	      6.93014081	     -6.27638491	    -21.94345235	    -34.21482603	     -9.24125309	    -27.20234950	    111.88290000	    141.11390782	     -7.20911717	      2.56570030	      0.22555105
      1.26000000	     -3.65603431	    -21.81209997	    -88.32637861	     -0.02191944	      0.96542760	     -0.03781959	     -8.48432035	     -4.42808541	    -14.11814894	    -11.42336471	      3.95332013	     18.20194049	     -0.93988365	    -21.21529162	    -10.22232336	    -18.04134336	    -18.70711570	     16.37791514	     26.22050231	      8.87325641	    -41.35164611	      3.87248094	     -6.27630347	    -35.54531679	     -9.65061191	      4.95882435	    -23.12461277	    -11.09500935	    -18.79557332	     72.35134156	    106.17218385	      7.00016834	     -6.36444386	    -21.89447595	    -33.62038222	     -9.23768681	    -26.78652344	    111.63738181	    141.21843083	     -7.44044860	      2.71819224	      0.24420927
